<svg xmlns="http://www.w3.org/2000/svg" width="23" height="23" viewBox="0 0 23 23">
    <g fill="#455A64">
        <path d="M11.5 0C5.149 0 0 5.149 0 11.5S5.149 23 11.5 23c.346 0 .692-.016 1.035-.046.32-.03.636-.073.95-.128l.12-.021c5.84-1.09 9.889-6.447 9.343-12.362C22.4 4.528 17.44.002 11.5 0zm-.924 22.193h-.027c-.298-.027-.594-.067-.887-.118l-.05-.008c-.287-.051-.571-.115-.852-.189l-.068-.017c-.274-.075-.545-.16-.812-.257-.028-.01-.056-.018-.083-.029-.262-.096-.52-.204-.773-.32l-.094-.043c-.248-.115-.492-.244-.73-.38l-.102-.058c-.235-.137-.465-.284-.69-.44l-.103-.07c-.221-.157-.437-.324-.647-.498l-.058-.05v-3.233c.003-2.327 1.889-4.214 4.217-4.216h5.366c2.328.002 4.214 1.889 4.217 4.216v3.233l-.05.042c-.215.18-.435.348-.661.508l-.09.062c-.228.158-.462.307-.7.447l-.091.051c-.243.138-.49.268-.74.386l-.088.038c-.255.118-.514.226-.778.323l-.077.027c-.268.097-.54.184-.816.258l-.066.017c-.281.074-.565.138-.852.19l-.05.007c-.293.052-.59.092-.888.118h-.027c-.307.026-.614.04-.924.04-.31 0-.62-.01-.926-.037zm8.59-3.188v-2.522c-.003-2.75-2.232-4.98-4.983-4.983H8.817c-2.751.003-4.98 2.232-4.984 4.983v2.522C-.295 14.79-.249 8.035 3.936 3.877c4.186-4.157 10.942-4.157 15.128 0 4.185 4.158 4.231 10.914.103 15.128z"/>
        <path d="M11.5 3.067c-2.117 0-3.833 1.716-3.833 3.833s1.716 3.833 3.833 3.833 3.833-1.716 3.833-3.833c-.002-2.116-1.717-3.831-3.833-3.833zm0 6.9c-1.694 0-3.067-1.373-3.067-3.067 0-1.694 1.373-3.067 3.067-3.067 1.694 0 3.067 1.373 3.067 3.067-.002 1.693-1.374 3.065-3.067 3.067z"/>
    </g>
</svg>
