<svg xmlns="http://www.w3.org/2000/svg" width="11" height="15" viewBox="0 0 11 15">
    <g fill="#3D5AFE">
        <path d="M9.73 0H1.27C.57 0 0 .57 0 1.27v11.902c0 .7.57 1.269 1.27 1.269h8.46c.7 0 1.27-.57 1.27-1.27V1.27C11 .57 10.43 0 9.73 0zM5.078 6.797V8.49H3.385V6.797h1.692zM2.538 8.49H.846V6.797h1.692V8.49zm-1.692.846h1.692v1.692H.846V9.336zm2.539 0h1.692v1.692H3.385V9.336zm1.692 2.538v1.72H3.385v-1.72h1.692zm.846 0h1.692v1.72H5.923v-1.72zm1.692-.846H5.923V9.336h1.692v1.692zM5.923 8.49V6.797h1.692V8.49H5.923zm2.539-1.693h1.692V8.49H8.462V6.797zM1.269.847h8.462c.233 0 .423.189.423.422v4.682H.846V1.27c0-.233.19-.423.423-.423zM.846 13.171v-1.298h1.692v1.72H1.27c-.233 0-.423-.189-.423-.422zm8.885.423H8.46v-4.26h1.693v3.837c0 .233-.19.423-.423.423z"/>
        <path d="M7.883 5.105h.339c.614 0 1.114-.5 1.114-1.114V2.835c0-.615-.5-1.114-1.114-1.114h-.339c-.614 0-1.114.5-1.114 1.114V3.99c0 .614.5 1.114 1.114 1.114zm-.268-2.27c0-.148.12-.268.268-.268h.339c.148 0 .268.12.268.268V3.99c0 .148-.12.268-.268.268h-.339c-.147 0-.268-.12-.268-.268V2.835z"/>
    </g>
</svg>
