<svg xmlns="http://www.w3.org/2000/svg" width="14" height="15" viewBox="0 0 14 15">
    <path fill="#90A4AE" d="M2.805 9.318h.931c.515 0 .932-.417.932-.932v-.932c0-.514-.417-.931-.932-.931h-.931c-.515 0-.932.417-.932.931v.932c0 .515.417.932.932.932zm0-1.864h.931v.932h-.931v-.932zm7.454 5.591h.932c.515 0 .932-.417.932-.931v-.932c0-.515-.417-.932-.932-.932h-.932c-.514 0-.932.417-.932.932v.932c0 .514.417.931.932.931zm0-1.863h.932v.932h-.932v-.932zm0-1.864h.932c.515 0 .932-.417.932-.932v-.932c0-.514-.417-.931-.932-.931h-.932c-.514 0-.932.417-.932.931v.932c0 .515.417.932.932.932zm0-1.864h.932v.932h-.932v-.932zM12.123.932h-1.864V.466C10.26.209 10.05 0 9.793 0s-.466.209-.466.466v.466H4.668V.466C4.668.209 4.46 0 4.202 0s-.466.209-.466.466v.466H1.873C.843.932.009 1.766.009 2.795v10.25c0 1.03.835 1.864 1.864 1.864h10.25c1.029 0 1.863-.834 1.863-1.864V2.795c0-1.029-.834-1.863-1.863-1.863zm.932 12.113c0 .515-.417.932-.932.932H1.873c-.515 0-.932-.417-.932-.932V4.66h12.114v8.386zm0-9.318H.94v-.932c0-.514.417-.931.932-.931h1.863v.466c0 .257.21.465.466.465.257 0 .466-.208.466-.465v-.466h4.66v.466c0 .257.208.465.465.465s.466-.208.466-.465v-.466h1.864c.515 0 .932.417.932.931v.932zm-6.523 9.318h.932c.514 0 .931-.417.931-.931v-.932c0-.515-.417-.932-.931-.932h-.932c-.515 0-.932.417-.932.932v.932c0 .514.417.931.932.931zm0-1.863h.932v.932h-.932v-.932zm0-1.864h.932c.514 0 .931-.417.931-.932v-.932c0-.514-.417-.931-.931-.931h-.932c-.515 0-.932.417-.932.931v.932c0 .515.417.932.932.932zm0-1.864h.932v.932h-.932v-.932zm-3.727 5.591h.931c.515 0 .932-.417.932-.931v-.932c0-.515-.417-.932-.932-.932h-.931c-.515 0-.932.417-.932.932v.932c0 .514.417.931.932.931zm0-1.863h.931v.932h-.931v-.932z"/>
</svg>
