<svg xmlns="http://www.w3.org/2000/svg" width="9" height="9" viewBox="0 0 9 9">
    <g fill="#BDBDBD" stroke="#BDBDBD" stroke-width=".3">
        <path d="M6.714 0H4.43c-.158 0-.286.128-.286.286 0 .158.128.285.286.285h1.595l-2.94 2.941c-.112.112-.112.293 0 .404.055.056.129.084.202.084.073 0 .146-.028.202-.084l2.94-2.94V2.57c0 .158.128.286.286.286.158 0 .286-.128.286-.286V.286C7 .128 6.872 0 6.714 0z" transform="matrix(-1 0 0 1 8 1)"/>
        <path d="M5.667 4c-.184 0-.334.15-.334.333v2H.667V1.667H2.5c.184 0 .333-.15.333-.334C2.833 1.15 2.684 1 2.5 1H.333C.15 1 0 1.15 0 1.333v5.334C0 6.85.15 7 .333 7h5.334C5.85 7 6 6.85 6 6.667V4.333C6 4.15 5.85 4 5.667 4z" transform="matrix(-1 0 0 1 8 1)"/>
    </g>
</svg>
