<?xml version="1.0" encoding="UTF-8"?>
<svg width="16px" height="19px" viewBox="0 0 16 19" version="1.1" xmlns="http://www.w3.org/2000/svg" xmlns:xlink="http://www.w3.org/1999/xlink">
    <!-- Generator: Sketch 48.2 (47327) - http://www.bohemiancoding.com/sketch -->
    <title>notification</title>
    <desc>Created with Sketch.</desc>
    <defs>
        <path d="M14.3290117,14.5319913 L13.0956881,12.4774279 C12.5271297,11.5291239 12.2263281,10.4436942 12.2263281,9.33743479 L12.2263281,7.53770643 C12.2263281,4.76743106 9.97147704,2.51258003 7.20120168,2.51258003 C4.43092631,2.51258003 2.17607528,4.76743106 2.17607528,7.53770643 L2.17607528,9.33743479 C2.17607528,10.4436942 1.87527368,11.5291239 1.30671525,12.4774279 L0.0733916863,14.5319913 C0.0066291436,14.6425331 0.00518217317,14.7811058 0.0683777655,14.8930946 C0.132280018,15.00579 0.25214301,15.0754465 0.381360835,15.0754465 L14.0210089,15.0754465 C14.1502267,15.0754465 14.2701233,15.0058237 14.3339919,14.8930946 C14.3971875,14.7810722 14.3957742,14.6425331 14.3290117,14.5319913 Z M1.01526849,14.3575473 L1.92194689,12.8464054 C2.55797452,11.7868192 2.89394086,10.5736186 2.89394086,9.33743479 L2.89394086,7.53770643 C2.89394086,5.16225209 4.82574734,3.23044561 7.20120168,3.23044561 C9.57665602,3.23044561 11.5084625,5.16225209 11.5084625,7.53770643 L11.5084625,9.33743479 C11.5084625,10.5736186 11.8444288,11.7868192 12.4797498,12.8464054 L13.3871349,14.3575473 L1.01526849,14.3575473 Z" id="path-1"></path>
        <path d="M7.20120168,0 C6.40937235,0 5.76543686,0.643935492 5.76543686,1.43576482 L5.76543686,2.87152965 C5.76543686,3.06962999 5.92625248,3.23044561 6.12438647,3.23044561 C6.32252047,3.23044561 6.48333609,3.06962999 6.48333609,2.87149599 L6.48333609,1.43576482 C6.48333609,1.03949683 6.80493368,0.717899237 7.20120168,0.717899237 C7.59746967,0.717899237 7.91906726,1.03949683 7.91906726,1.43576482 L7.91906726,2.87152965 C7.91906726,3.06962999 8.07988289,3.23044561 8.27801688,3.23044561 C8.47615088,3.23044561 8.6369665,3.06962999 8.6369665,2.87149599 L8.6369665,1.43576482 C8.6369665,0.643935492 7.99303101,0 7.20120168,0 Z" id="path-2"></path>
        <path d="M8.75467586,14.5348516 C8.65345523,14.3640082 8.43449159,14.3080138 8.26294147,14.4063405 C8.0913577,14.5068544 8.03394999,14.7272314 8.13443031,14.8980749 C8.22774307,15.0567368 8.27872354,15.246963 8.27872354,15.4343288 C8.27872354,16.0280242 7.79560367,16.511144 7.20190834,16.511144 C6.60821301,16.511144 6.12509313,16.0280242 6.12509313,15.4343288 C6.12509313,15.246963 6.1760736,15.0567368 6.26938637,14.8980749 C6.36916003,14.7264911 6.31175232,14.5068208 6.14087521,14.4063405 C5.96787811,14.3079801 5.74962113,14.3639745 5.64914081,14.5348516 C5.49047882,14.8062091 5.40648724,15.1170385 5.40648724,15.4343625 C5.40652089,16.4242922 6.21123835,17.2290433 7.20120168,17.2290433 C8.19116501,17.2290433 8.99588247,16.4242922 8.99732944,15.4343625 C8.99732944,15.1170385 8.91333785,14.8062091 8.75467586,14.5348516 Z" id="path-3"></path>
    </defs>
    <g id="Dashboard" stroke="none" stroke-width="1" fill="none" fill-rule="evenodd" transform="translate(-1442.000000, -24.000000)">
        <g id="Header" transform="translate(-2.000000, -1.000000)" fill-rule="nonzero">
            <g id="notification" transform="translate(1445.000000, 26.000000)">
                <g id="Shape">
                    <use fill="#757575" fill-rule="evenodd" xlink:href="#path-1"></use>
                    <path stroke="#757575" stroke-width="0.3" d="M14.4575245,14.4546319 C14.5520284,14.6112602 14.5545027,14.8074972 14.4645008,14.9670366 C14.3740569,15.1266717 14.2043668,15.2254465 14.0210089,15.2254465 L0.381360835,15.2254465 C0.198039618,15.2254465 0.0283885497,15.1266735 -0.0622578047,14.9668126 C-0.152167302,14.8074842 -0.149628169,14.6111114 -0.0552160801,14.45479 L1.17806594,12.4002959 C1.73285117,11.4749643 2.02607528,10.4161397 2.02607528,9.33743479 L2.02607528,7.53770643 C2.02607528,4.68458835 4.3480836,2.36258003 7.20120168,2.36258003 C10.0543198,2.36258003 12.3763281,4.68458835 12.3763281,7.53770643 L12.3763281,9.33743479 C12.3763281,10.4161397 12.6695522,11.4749643 13.2242959,12.4002266 L14.4575245,14.4546319 Z M1.28019603,14.2075473 L13.1221011,14.2075473 L12.3511028,12.9235413 C11.7017053,11.8404784 11.3584625,10.6005879 11.3584625,9.33743479 L11.3584625,7.53770643 C11.3584625,5.2450948 9.49381331,3.38044561 7.20120168,3.38044561 C4.90859005,3.38044561 3.04394086,5.2450948 3.04394086,7.53770643 L3.04394086,9.33743479 C3.04394086,10.6009352 2.70051872,11.8408032 2.05057108,12.9235793 L1.28019603,14.2075473 Z"></path>
                </g>
                <g id="Shape">
                    <use fill="#757575" fill-rule="evenodd" xlink:href="#path-2"></use>
                    <path stroke="#757575" stroke-width="0.3" d="M7.20120168,-0.15 C8.07587372,-0.15 8.7869665,0.56109278 8.7869665,1.43576482 L8.7869665,2.87149599 C8.7869665,3.1524727 8.55899359,3.38044561 8.27801688,3.38044561 C7.99704755,3.38044561 7.76906726,3.15248008 7.76906726,2.87152965 L7.76906726,1.43576482 C7.76906726,1.12233954 7.51462696,0.867899237 7.20120168,0.867899237 C6.8877764,0.867899237 6.63333609,1.12233954 6.63333609,1.43576482 L6.63333609,2.87149599 C6.63333609,3.1524727 6.40536318,3.38044561 6.12438647,3.38044561 C5.84341714,3.38044561 5.61543686,3.15248008 5.61543686,2.87152965 L5.61543686,1.43576482 C5.61543686,0.56109278 6.32652964,-0.15 7.20120168,-0.15 Z"></path>
                </g>
                <g id="Shape">
                    <use fill="#757575" fill-rule="evenodd" xlink:href="#path-3"></use>
                    <path stroke="#757575" stroke-width="0.3" d="M8.8837262,14.4583924 L8.88416575,14.4591392 C9.05638173,14.7536779 9.14732944,15.0906725 9.14732928,15.4345817 C9.14576104,16.5074734 8.27371734,17.3790433 7.20120168,17.3790433 C6.12841331,17.3790433 5.2565237,16.5071537 5.25648724,15.4343625 C5.25648724,15.0906725 5.34743495,14.7536779 5.5198389,14.4588186 C5.66186199,14.2172938 5.97070183,14.1370355 6.2169082,14.2770385 C6.45898735,14.4193876 6.54030957,14.730561 6.39868285,14.9741171 C6.31915084,15.1093473 6.27509313,15.2732559 6.27509313,15.4343288 C6.27509313,15.9451814 6.69105572,16.361144 7.20190834,16.361144 C7.71276096,16.361144 8.12872354,15.9451814 8.12872354,15.4343288 C8.12872354,15.2732559 8.08466584,15.1093473 8.00513494,14.974119 C7.86253422,14.7316595 7.94409025,14.4192815 8.18835025,14.2762015 C8.43133828,14.136929 8.74087841,14.2172893 8.8837262,14.4583924 Z"></path>
                </g>
            </g>
        </g>
    </g>
</svg>