<svg xmlns="http://www.w3.org/2000/svg" width="15" height="15" viewBox="0 0 15 15">
    <path fill="#EF5350" d="M7.5 0C3.365 0 0 3.365 0 7.5S3.365 15 7.5 15 15 11.635 15 7.5 11.635 0 7.5 0zm3.033 9.65c.122.122.122.32 0 .442l-.441.441c-.122.122-.32.122-.442 0L7.5 8.383l-2.15 2.15c-.122.122-.32.122-.442 0l-.441-.441c-.123-.122-.123-.32 0-.442l2.15-2.15-2.15-2.15c-.123-.122-.123-.32 0-.442l.441-.441c.122-.122.32-.122.442 0l2.15 2.15 2.15-2.15c.122-.122.32-.122.442 0l.441.441c.123.122.123.32 0 .442L8.383 7.5l2.15 2.15z"/>
</svg>
