<?xml version="1.0" encoding="UTF-8"?>
<svg width="14px" height="14px" viewBox="0 0 14 14" version="1.1" xmlns="http://www.w3.org/2000/svg" xmlns:xlink="http://www.w3.org/1999/xlink">
    <!-- Generator: Sketch 48.2 (47327) - http://www.bohemiancoding.com/sketch -->
    <title>settings</title>
    <desc>Created with Sketch.</desc>
    <defs></defs>
    <g id="Dashboard-with-news-&amp;-Chat" stroke="none" stroke-width="1" fill="none" fill-rule="evenodd" transform="translate(-1429.000000, -127.000000)">
        <g id="Header" transform="translate(-2.000000, -1.000000)" fill="#8F8F8F" fill-rule="nonzero" stroke="#8F8F8F" stroke-width="0.5">
            <g id="Avatar-menu" transform="translate(1418.000000, 53.000000)">
                <g id="settings" transform="translate(14.000000, 76.000000)">
                    <path d="M6.65651342,12 L5.39511786,12 C5.20533484,12 5.13912738,12.0004182 4.49238995,10.365328 L3.99293631,10.1581565 C2.63202466,10.7882137 2.47092569,10.7882137 2.41706993,10.7882137 L2.31292929,10.7882137 L2.22412582,10.710375 L1.32994458,9.81758987 C1.19395879,9.67905733 1.146835,9.6309682 1.84655011,8.0172643 L1.64289338,7.52556042 C0,6.92477486 0,6.85506056 0,6.65708867 L0,5.39506265 C0,5.19732971 0,5.13490345 1.63744927,4.48877671 L1.84110599,3.99599755 C1.10094052,2.40684598 1.15186934,2.35750235 1.29786528,2.21723741 L2.2594833,1.25515614 L2.37890259,1.25133291 C2.52407899,1.25133291 3.06269513,1.45187353 3.98117,1.84757837 L4.47916016,1.64124315 C5.07871527,-0.000238952185 5.15229863,1.01236873e-11 5.34143771,1.01236873e-11 L6.60283328,1.01236873e-11 C6.79179675,1.01236873e-11 6.85823837,0.000238952205 7.5049758,1.63574725 L8.00524899,1.84142535 C9.36405323,1.21220448 9.5272596,1.21220448 9.58152513,1.21220448 L9.68502185,1.21220448 L9.77382532,1.28872892 L10.6680066,2.18002061 C10.8039924,2.3200466 10.8504722,2.36795651 10.1507571,3.98231754 L10.3549992,4.4768291 C12,5.07504592 12,5.14452127 12,5.34291133 L12,6.6034439 C12,6.79651727 12,6.86449917 10.3604433,7.51098433 L10.1580745,8.00418166 C10.8944934,9.58646336 10.8458476,9.63604594 10.7079886,9.77780433 L9.73905323,10.7458594 L9.61899001,10.7492645 C9.47445754,10.7492645 8.93707071,10.5484849 8.0198837,10.1523619 L7.51896659,10.3588763 C6.9177724,12 6.84945754,12 6.65651342,12 Z M5.52624493,11.4789647 L6.52117156,11.4789647 C6.63532235,11.2414463 6.88212223,10.6118072 7.07969091,10.0694455 L7.11949735,9.96149883 L8.02538636,9.58819576 L8.12279504,9.63031109 C8.66269903,9.86526083 9.30083125,10.125659 9.54950437,10.2056482 L10.2486341,9.50784809 C10.1598306,9.25664959 9.89061037,8.64200481 9.64779113,8.12353828 L9.5987941,8.01816037 L9.97361848,7.10506429 L10.0756517,7.06486059 C10.6209998,6.85063994 11.2528684,6.5861796 11.4889557,6.46556848 L11.4889557,5.4852671 C11.2501171,5.37068953 10.6207657,5.12630117 10.0784031,4.93006168 L9.97221355,4.89135142 L9.59493053,3.97735928 L9.63994692,3.87431115 C9.87205354,3.33983482 10.13021,2.70935946 10.2129254,2.45535328 L9.51192242,1.75605968 C9.28566968,1.83664631 8.6521035,2.11371138 8.11770215,2.36258009 L8.01818608,2.40917576 L7.11229707,2.03652982 L7.07184671,1.93372064 C6.85771152,1.38831225 6.59165236,0.755925268 6.47164767,0.521811855 L5.47742351,0.521811855 C5.36262879,0.758673218 5.11664845,1.3885512 4.91954808,1.93073373 L4.88038558,2.03808301 L3.97701374,2.41264057 L3.87960506,2.37010708 C3.33847175,2.1355755 2.69905167,1.87559551 2.44955901,1.795666 L1.7516586,2.49388432 C1.83923275,2.74466465 2.10927256,3.35889126 2.35127224,3.87735779 L2.40091321,3.98297466 L2.02421558,4.89565256 L1.92282626,4.93561732 C1.37835623,5.14959901 0.747541367,5.41388014 0.511395567,5.53401335 L0.511395567,6.51556923 C0.750234155,6.63056497 1.37894162,6.87561045 1.92095301,7.07268627 L2.02632298,7.11181469 L2.40366453,8.0227602 L2.35864814,8.12556938 C2.12654152,8.65962753 1.86861926,9.28926657 1.78566968,9.54279484 L2.48813612,10.244239 C2.71374493,10.1629953 3.34649157,9.8859302 3.88153684,9.63682253 L3.98169685,9.5899879 L4.88571261,9.96496363 L4.92616297,10.0677728 C5.14094209,10.6133604 5.4061817,11.2446721 5.52624493,11.4789647 Z M5.99994146,8.10018071 C4.84327193,8.10018071 3.90138152,7.1579922 3.90138152,5.99985065 C3.90138152,4.84260518 4.84309632,3.90101405 5.99994146,3.90101405 C7.15596706,3.90101405 8.09557446,4.84278439 8.09557446,5.99985065 C8.09557446,7.1579922 7.15596706,8.10018071 5.99994146,8.10018071 Z M5.99994146,4.42252722 C5.12443412,4.42252722 4.41277708,5.13018414 4.41277708,5.99991039 C4.41277708,6.87023402 5.12425851,7.57854807 5.99994146,7.57854807 C6.87398533,7.57854807 7.58505698,6.87023402 7.58505698,5.99991039 C7.58482282,5.13018414 6.87398533,4.42252722 5.99994146,4.42252722 Z" id="Shape"></path>
                </g>
            </g>
        </g>
    </g>
</svg>