<?xml version="1.0" encoding="UTF-8"?>
<svg width="8px" height="8px" viewBox="0 0 8 8" version="1.1" xmlns="http://www.w3.org/2000/svg" xmlns:xlink="http://www.w3.org/1999/xlink">
    <!-- Generator: Sketch 48.2 (47327) - http://www.bohemiancoding.com/sketch -->
    <title>cancel</title>
    <desc>Created with Sketch.</desc>
    <defs></defs>
    <g id="Dashboard-with-news-&amp;-Chat" stroke="none" stroke-width="1" fill="none" fill-rule="evenodd" transform="translate(-1572.000000, -565.000000)">
        <g id="Right-Side" transform="translate(1320.000000, 65.000000)" fill="#8F8F8F" fill-rule="nonzero">
            <g id="Chat" transform="translate(14.000000, 487.000000)">
                <g id="Search-people">
                    <g id="cancel" transform="translate(238.000000, 13.000000)">
                        <path d="M4.59547316,4.00000293 L7.87668389,0.718781776 C8.04110537,0.554344156 8.04110537,0.287750211 7.87668389,0.123328215 C7.7122468,-0.0411094051 7.44563807,-0.0411094051 7.2812166,0.123328215 L3.99999023,3.40454937 L0.718779495,0.123328215 C0.554342397,-0.0411094051 0.287749297,-0.0411094051 0.123327824,0.123328215 C-0.0410936497,0.287765836 -0.0411092746,0.554359781 0.123327824,0.718781776 L3.40453856,4.00000293 L0.123327824,7.28122408 C-0.0411092746,7.4456617 -0.0411092746,7.71225565 0.123327824,7.87667764 C0.287764922,8.04111526 0.554358022,8.04109964 0.718779495,7.87667764 L3.99999023,4.59545649 L7.28118535,7.87667764 C7.44562245,8.04111526 7.71223117,8.04109964 7.87665264,7.87667764 C8.04107412,7.71224002 8.04107412,7.44564608 7.87665264,7.28122408 L4.59547316,4.00000293 Z" id="Shape"></path>
                    </g>
                </g>
            </g>
        </g>
    </g>
</svg>