<svg xmlns="http://www.w3.org/2000/svg" width="20" height="12" viewBox="0 0 20 12">
    <g fill="#33691E">
        <path d="M16.892 11.667H5.628c-.548 0-1.067-.24-1.424-.655-.357-.417-.513-.967-.429-1.509l1.233-7.916C5.152.667 5.93 0 6.86 0h11.264c.547 0 1.067.24 1.423.655.358.417.514.967.43 1.508l-1.233 7.917c-.145.92-.923 1.587-1.853 1.587zM6.86 1.25c-.31 0-.57.222-.618.53L5.011 9.695c-.029.183.021.362.142.503.121.14.289.218.475.218h11.264c.31 0 .57-.223.617-.53l1.233-7.916c.028-.183-.022-.363-.143-.504-.12-.14-.288-.217-.474-.217H6.861z" transform="matrix(-1 0 0 1 20 0)"/>
        <path d="M11.937 7.063c-.402 0-.804-.106-1.164-.318L5.122 3.413c-.298-.175-.397-.558-.222-.855.176-.297.557-.398.856-.221l5.652 3.331c.306.18.677.192.995.034l6.54-3.27c.308-.154.683-.029.838.28.155.309.029.684-.28.838l-6.54 3.27c-.324.162-.674.243-1.024.243zM3.542 2.917H.625C.28 2.917 0 2.637 0 2.292s.28-.625.625-.625h2.917c.345 0 .625.28.625.625s-.28.625-.625.625zM2.708 6.25H.625C.28 6.25 0 5.97 0 5.625S.28 5 .625 5h2.083c.345 0 .625.28.625.625s-.28.625-.625.625zM1.875 9.583H.625C.28 9.583 0 9.303 0 8.958s.28-.625.625-.625h1.25c.345 0 .625.28.625.625s-.28.625-.625.625z" transform="matrix(-1 0 0 1 20 0)"/>
    </g>
</svg>
