<svg xmlns="http://www.w3.org/2000/svg" width="17" height="16" viewBox="0 0 17 16">
    <path fill="#263238" d="M16.502 3.984H12.79c.53-.564.856-1.324.856-2.158V.498c0-.275-.223-.498-.498-.498h-1.992C10.042 0 9.061.58 8.5 1.455 7.939.58 6.958 0 5.844 0H3.852c-.275 0-.498.223-.498.498v1.328c0 .834.325 1.594.856 2.158H.498c-.275 0-.498.223-.498.498v3.985c0 .275.223.498.498.498h.531v6.142c0 .275.223.498.498.498h13.946c.275 0 .498-.223.498-.498V8.965h.531c.275 0 .498-.223.498-.498V4.482c0-.275-.223-.498-.498-.498zM11.156.996h1.494v.83c0 1.19-.968 2.158-2.158 2.158H8.998v-.83c0-1.19.968-2.158 2.158-2.158zm-6.806.83v-.83h1.494c1.19 0 2.158.968 2.158 2.158v.83H6.508c-1.19 0-2.158-.968-2.158-2.158zM.996 4.98h6.01V7.97H.996V4.98zm1.03 3.985h4.98v5.644h-4.98V8.965zM8.001 4.98h.996v9.63h-.996V4.98zm6.973 9.63h-4.98V8.964h4.98v5.644zm1.029-6.641h-6.01V4.98h6.01V7.97z"/>
</svg>
