<svg xmlns="http://www.w3.org/2000/svg" width="13" height="10" viewBox="0 0 13 10">
    <g fill="#546E7A">
        <path d="M13.486.171h-12c-.277 0-.5.173-.5.386 0 .213.223.386.5.386h12c.276 0 .5-.173.5-.386 0-.213-.224-.386-.5-.386zM13.486 4.414h-12c-.277 0-.5.173-.5.386 0 .213.223.386.5.386h12c.276 0 .5-.173.5-.386 0-.213-.224-.386-.5-.386zM13.486 8.657h-12c-.277 0-.5.173-.5.386 0 .213.223.386.5.386h12c.276 0 .5-.173.5-.386 0-.213-.224-.386-.5-.386z" transform="translate(-1)"/>
    </g>
</svg>
