<svg xmlns="http://www.w3.org/2000/svg" width="14" height="16" viewBox="0 0 14 16">
    <g fill="#1A334D">
        <path d="M6.748 14.23H2.81c-1.07 0-1.938-.87-1.938-1.938V2.803c0-1.07.871-1.938 1.938-1.938h4.002c.24 0 .432-.192.432-.433 0-.24-.192-.432-.432-.432H2.81C1.263 0 .007 1.259.007 2.803v9.49c0 1.547 1.26 2.803 2.803 2.803h3.938c.24 0 .432-.193.432-.433s-.195-.432-.432-.432z" transform="matrix(-1 0 0 1 14 0)"/>
        <path d="M13.872 7.243l-2.748-2.748c-.17-.17-.442-.17-.612 0-.17.17-.17.442 0 .612l2.012 2.012H3.749c-.24 0-.433.192-.433.432s.193.433.433.433h8.775l-2.012 2.011c-.17.17-.17.443 0 .612.083.084.195.128.304.128.11 0 .221-.041.305-.128l2.748-2.748c.173-.173.173-.449.003-.616z" transform="matrix(-1 0 0 1 14 0)"/>
    </g>
</svg>
