<svg xmlns="http://www.w3.org/2000/svg" width="11" height="12" viewBox="0 0 11 12">
    <g fill="#CFD8DC">
        <path d="M9.284 2.365h-.296v-.66C8.988.765 8.223 0 7.283 0h-3.58c-.94 0-1.705.765-1.705 1.705v.66h-.27c-.94 0-1.705.765-1.705 1.705v2.75c0 .94.765 1.705 1.705 1.705h.268v2.162c0 .468.382.851.85.851h5.288c.469 0 .851-.383.851-.851V8.525h.3c.939 0 1.704-.765 1.704-1.705V4.07c0-.94-.765-1.705-1.705-1.705zm-6.643-.66c0-.583.476-1.06 1.06-1.06h3.577c.583 0 1.06.477 1.06 1.06v.66H2.64v-.66zm5.699 8.987c0 .112-.094.205-.206.205H2.847c-.113 0-.206-.093-.206-.205V7.126H8.34v3.566zm2.004-3.87c0 .584-.476 1.06-1.06 1.06h-.296v-.756h.425c.18 0 .323-.143.323-.323 0-.18-.143-.323-.323-.323h-7.89c-.18 0-.324.144-.324.323 0 .18.144.323.323.323h.476v.756h-.27c-.584 0-1.06-.476-1.06-1.06v-2.75c0-.583.476-1.059 1.06-1.059h7.556c.584 0 1.06.476 1.06 1.06v2.75z"/>
        <path d="M3.423 8.714h4.11c.18 0 .324-.144.324-.323 0-.18-.144-.323-.323-.323h-4.11c-.18 0-.324.144-.324.323 0 .18.146.323.323.323zM7.56 9.388H3.447c-.18 0-.323.144-.323.323 0 .18.144.323.323.323h4.11c.18 0 .324-.144.324-.323 0-.18-.144-.323-.32-.323zM9.277 3.632h-.655c-.18 0-.323.144-.323.323 0 .18.144.323.323.323h.655c.18 0 .323-.143.323-.323 0-.18-.144-.323-.323-.323z"/>
    </g>
</svg>
