<svg xmlns="http://www.w3.org/2000/svg" width="17" height="16" viewBox="0 0 17 16">
    <g fill="#263238">
        <path d="M15.678 3.848h-1.803V.568c0-.312-.254-.566-.567-.566H3.692c-.313 0-.567.254-.567.567v3.28H1.322C.593 3.848 0 4.441 0 5.17v5.7c0 .73.593 1.323 1.322 1.323h1.803v3.042c0 .313.254.567.567.567h9.616c.313 0 .567-.254.567-.567v-3.042h1.803c.729 0 1.322-.593 1.322-1.322V5.17c0-.73-.593-1.323-1.322-1.323zM4.258 1.136h8.483v2.712H4.26V1.136zm8.483 13.533H4.26v-4.636h8.482v4.636zm3.126-3.797c0 .104-.085.189-.19.189h-1.802V9.466c0-.312-.254-.566-.567-.566H3.692c-.313 0-.567.254-.567.566v1.595H1.322c-.104 0-.189-.085-.189-.19v-5.7c0-.104.085-.19.19-.19h14.355c.104 0 .189.086.189.19v5.7z"/>
        <path d="M13.308 6.043h-1.442c-.313 0-.567.253-.567.566 0 .313.254.567.567.567h1.442c.313 0 .567-.254.567-.567 0-.313-.254-.566-.567-.566zM10.956 12.678H6.044c-.313 0-.566.254-.566.567 0 .313.253.566.566.566h4.912c.312 0 .566-.253.566-.566 0-.313-.253-.567-.566-.567zM10.956 10.89H6.044c-.313 0-.566.255-.566.568 0 .312.253.566.566.566h4.912c.312 0 .566-.254.566-.566 0-.313-.253-.567-.566-.567z"/>
    </g>
</svg>
