<svg xmlns="http://www.w3.org/2000/svg" width="15" height="15" viewBox="0 0 15 15">
    <g>
        <path d="M5.358.312c-1.685.501-3.14 1.58-4.11 3.046-.133.24-.216.505-.245.778v-2.63H.005V5.5h3.992V4.5H1.742C2.859 2.35 5.068.99 7.49.958c2.872.033 5.39 1.929 6.217 4.68l.958-.284C13.487 1.392 9.32-.866 5.358.312zM10.983 9.49v.998h2.255c-1.117 2.15-3.326 3.51-5.748 3.543-2.873-.034-5.39-1.93-6.217-4.68l-.958.284c1.183 3.96 5.352 6.213 9.313 5.03 1.735-.518 3.223-1.648 4.189-3.179.103-.195.158-.413.16-.634v2.63h.997V9.49h-3.991z"/>
    </g>
</svg>
