<?xml version="1.0" encoding="UTF-8"?>
<svg width="14px" height="14px" viewBox="0 0 14 14" version="1.1" xmlns="http://www.w3.org/2000/svg" xmlns:xlink="http://www.w3.org/1999/xlink">
    <!-- Generator: Sketch 48.2 (47327) - http://www.bohemiancoding.com/sketch -->
    <title>Search_bold</title>
    <desc>Created with Sketch.</desc>
    <defs></defs>
    <g id="Dashboard-with-news-&amp;-Chat" stroke="none" stroke-width="1" fill="none" fill-rule="evenodd" transform="translate(-1575.000000, -560.000000)">
        <g id="Right-Side" transform="translate(1320.000000, 65.000000)" fill="#616161" fill-rule="nonzero" stroke="#616161">
            <g id="Chat" transform="translate(14.000000, 493.000000)">
                <g id="Search_bold" transform="translate(242.000000, 3.000000)">
                    <path d="M11.7483699,11.0492933 L8.88895259,8.18987604 C9.59773855,7.32573974 10.024952,6.21886853 10.024952,5.012476 C10.024952,2.24529797 7.77965403,0 5.012476,0 C2.24287062,0 0,2.24529797 0,5.012476 C0,7.77965403 2.24287062,10.024952 5.012476,10.024952 C6.21886853,10.024952 7.32331239,9.6001659 8.18744869,8.89137994 L11.046866,11.7483699 C11.2410539,11.9425578 11.554182,11.9425578 11.7483699,11.7483699 C11.9425578,11.5566093 11.9425578,11.2410539 11.7483699,11.0492933 Z M5.012476,9.0273115 C2.79630622,9.0273115 0.995213152,7.22621843 0.995213152,5.012476 C0.995213152,2.79873357 2.79630622,0.995213152 5.012476,0.995213152 C7.22621843,0.995213152 9.02973885,2.79873357 9.02973885,5.012476 C9.02973885,7.22621843 7.22621843,9.0273115 5.012476,9.0273115 Z" id="Shape"></path>
                </g>
            </g>
        </g>
    </g>
</svg>