<?xml version="1.0" encoding="UTF-8"?>
<svg width="17px" height="17px" viewBox="0 0 17 17" version="1.1" xmlns="http://www.w3.org/2000/svg" xmlns:xlink="http://www.w3.org/1999/xlink">
    <!-- Generator: Sketch 59 (86127) - https://sketch.com -->
    <title>wheel (1)</title>
    <desc>Created with Sketch.</desc>
    <g id="Page-1" stroke="none" stroke-width="1" fill="none" fill-rule="evenodd">
        <g id="Notif-panel---assets" transform="translate(-396.000000, -41.000000)" fill="#79818D" fill-rule="nonzero" stroke="#79818D" stroke-width="0.3">
            <g id="wheel-(1)" transform="translate(397.000000, 42.000000)">
                <path d="M7.5,3.91433716 C5.5229187,3.91433716 3.91433716,5.5229187 3.91433716,7.5 C3.91433716,9.4770813 5.5229187,11.0856628 7.5,11.0856628 C9.4770813,11.0856628 11.0856628,9.4770813 11.0856628,7.5 C11.0856628,5.5229187 9.4770813,3.91433716 7.5,3.91433716 Z M7.5,10.1892471 C6.01718903,10.1892471 4.81075286,8.98281097 4.81075286,7.5 C4.81075286,6.01718903 6.01718903,4.81075286 7.5,4.81075286 C8.98281097,4.81075286 10.1892471,6.01718903 10.1892471,7.5 C10.1892471,8.98281097 8.98281097,10.1892471 7.5,10.1892471 Z" id="Shape"></path>
                <path d="M14.6470642,5.79208374 L13.4941864,5.54145814 C13.3939362,5.23452759 13.2697678,4.93515015 13.1231689,4.64675903 L13.7614059,3.65398406 C13.8753891,3.47660065 13.8503265,3.24371338 13.7013245,3.09471129 L11.9052887,1.29867554 C11.7562866,1.14967348 11.5233993,1.12461091 11.3460159,1.23859406 L10.353241,1.87683105 C10.0648499,1.73023225 9.76547241,1.60606383 9.45854186,1.50581361 L9.20791626,0.352935791 C9.16316985,0.146942139 8.98075104,0 8.76995086,0 L6.23004914,0 C6.01924896,0 5.83683015,0.146942139 5.79208374,0.352935791 L5.54145814,1.50581361 C5.23452759,1.60606383 4.93515015,1.73023225 4.64675903,1.87683105 L3.65398406,1.23859406 C3.47660065,1.12461091 3.24371338,1.14967348 3.09471129,1.29867554 L1.29867554,3.09471129 C1.14967348,3.24371338 1.12461091,3.47660065 1.23859406,3.65398406 L1.87683105,4.64675903 C1.73023225,4.93515015 1.60606383,5.23452759 1.50581361,5.54145814 L0.352935791,5.79208374 C0.146942139,5.83694458 1.70530257e-13,6.01924896 1.70530257e-13,6.23004914 L1.70530257e-13,8.76995086 C1.70530257e-13,8.98075104 0.146942139,9.16305542 0.352935791,9.20791626 L1.50581361,9.45854186 C1.60606383,9.76547241 1.73023225,10.0648499 1.87683105,10.353241 L1.23859406,11.3460159 C1.12461091,11.5233993 1.14967348,11.7562866 1.29867554,11.9052887 L3.09471129,13.7013245 C3.24371338,13.8503265 3.47660065,13.8753891 3.65398406,13.7614059 L4.64675903,13.1231689 C4.93515015,13.2697678 5.23452759,13.3939362 5.54145814,13.4941864 L5.79208374,14.6470642 C5.83683015,14.8530579 6.01924896,15 6.23004914,15 L8.76995086,15 C8.98075104,15 9.16316985,14.8530579 9.20791626,14.6470642 L9.45854186,13.4941864 C9.76547241,13.3939362 10.0648499,13.2697678 10.353241,13.1231689 L11.3460159,13.7614059 C11.5233993,13.8753891 11.7562866,13.850441 11.9052887,13.7013245 L13.7013245,11.9052887 C13.8503265,11.7562866 13.8753891,11.5233993 13.7614059,11.3460159 L13.1231689,10.353241 C13.2697678,10.0648499 13.3939362,9.76547241 13.4941864,9.45854186 L14.6470642,9.20791626 C14.8530579,9.16305542 15,8.98075104 15,8.76995086 L15,6.23004914 C15,6.01924896 14.8530579,5.83694458 14.6470642,5.79208374 Z M14.1035843,8.40866089 L13.0464935,8.63845825 C12.8841019,8.67382049 12.7545548,8.79604339 12.7099228,8.95603181 C12.5937653,9.37271118 12.4266815,9.77565765 12.2133636,10.153656 C12.1316528,10.2984238 12.1366882,10.4764938 12.2266388,10.6163406 L12.8120041,11.5268326 L11.526947,12.8120041 L10.6163406,12.2266388 C10.4764938,12.1366882 10.2984238,12.1316528 10.1537704,12.2133636 C9.77565765,12.4266815 9.37271118,12.5937653 8.95603181,12.7099228 C8.79604339,12.7545548 8.67382049,12.8841019 8.63845825,13.0464935 L8.40866089,14.1035843 L6.59133911,14.1035843 L6.36154175,13.0464935 C6.32617951,12.8841019 6.20395661,12.7545548 6.04396819,12.7099228 C5.62728882,12.5937653 5.22434235,12.4266815 4.84634399,12.2133636 C4.70157624,12.1316528 4.52350617,12.1368027 4.38365936,12.2266388 L3.47316741,12.8120041 L2.18811035,11.5268326 L2.77336119,10.6163406 C2.86331177,10.4764938 2.8684616,10.2984238 2.7867508,10.153656 C2.57343293,9.77565765 2.40634919,9.37271118 2.29007722,8.95603181 C2.24544524,8.79604339 2.11601256,8.67382049 1.95362092,8.63845825 L0.896415703,8.40866089 L0.896415703,6.59133911 L1.95350648,6.36154175 C2.11589813,6.32617951 2.24544524,6.20395661 2.29007722,6.04396819 C2.40623473,5.62728882 2.5733185,5.22434235 2.78663637,4.84634399 C2.86834717,4.70157624 2.86331177,4.52350617 2.77336119,4.38365936 L2.18799592,3.47316741 L3.47305298,2.18799592 L4.38365936,2.77336119 C4.52350617,2.86331177 4.70157624,2.86834717 4.84622956,2.78663637 C5.22434235,2.5733185 5.62728882,2.40623473 6.04396819,2.29007722 C6.20395661,2.24544524 6.32617951,2.11589813 6.36154175,1.95350648 L6.59133911,0.896415703 L8.40866089,0.896415703 L8.63845825,1.95350648 C8.67382049,2.11589813 8.79604339,2.24544524 8.95603181,2.29007722 C9.37271118,2.40623473 9.77565765,2.5733185 10.153656,2.78663637 C10.2984238,2.86834717 10.4764938,2.86319733 10.6163406,2.77336119 L11.5268326,2.18799592 L12.8118896,3.47316741 L12.2266388,4.38365936 C12.1366882,4.52350617 12.1315384,4.70157624 12.2132492,4.84634399 C12.4266815,5.22434235 12.5936508,5.62728882 12.7099228,6.04396819 C12.7545548,6.20395661 12.8839874,6.32617951 13.0463791,6.36154175 L14.1035843,6.59133911 L14.1035843,8.40866089 Z" id="Shape"></path>
            </g>
        </g>
    </g>
</svg>