<svg xmlns="http://www.w3.org/2000/svg" width="19" height="19" viewBox="0 0 19 19">
    <path fill="#FFF" stroke="#FFF" stroke-width=".3" d="M17.63 6.913h-5.543V1.37c0-.205-.166-.37-.37-.37H1.37c-.204 0-.37.165-.37.37v7.39c0 .205.166.37.37.37h1.108v2.587c0 .15.09.285.228.342.046.02.094.028.142.028.096 0 .19-.038.261-.108L5.957 9.13h.956v5.544c0 .204.166.37.37.37h5.76l2.848 2.848c.07.07.165.108.261.108.048 0 .096-.009.142-.028.138-.057.228-.192.228-.342v-2.587h1.108c.204 0 .37-.165.37-.37v-7.39c0-.205-.166-.37-.37-.37zM5.804 8.391c-.098 0-.192.04-.26.109l-2.327 2.325V8.761c0-.205-.165-.37-.37-.37H1.74V1.74h9.609v6.652H7.284h-1.48zm11.457 5.913h-1.109c-.204 0-.37.165-.37.37v2.064l-2.325-2.325c-.07-.07-.163-.109-.261-.109H7.652V9.13h4.065c.204 0 .37-.165.37-.37V7.653h5.174v6.652z"/>
</svg>
