<svg xmlns="http://www.w3.org/2000/svg" width="20" height="29" viewBox="0 0 20 29">
    <g fill="#78909C">
        <path d="M19.468 12.308h-1.63c-.426-1.994-1.522-3.78-3.104-5.065V.473c0-.261-.212-.473-.473-.473H3.846c-.261 0-.473.212-.473.473v6.763c-3.847 3.128-4.43 8.782-1.302 12.628.388.478.825.914 1.302 1.302v6.763c0 .261.212.473.473.473h10.415c.261 0 .473-.212.473-.473v-6.77c1.582-1.284 2.678-3.071 3.104-5.064h1.63c.261 0 .473-.212.473-.474v-2.84c0-.261-.212-.473-.473-.473zM13.788.947v5.606c-.115-.07-.233-.135-.35-.2-.053-.03-.105-.064-.16-.093-.2-.108-.406-.207-.615-.3-.047-.02-.094-.036-.138-.055-.164-.07-.331-.135-.497-.194-.076-.026-.152-.047-.228-.073-.142-.047-.284-.089-.43-.127-.083-.022-.167-.043-.25-.062-.143-.034-.285-.063-.43-.09-.084-.015-.168-.03-.252-.043-.155-.024-.311-.042-.469-.058-.073-.007-.146-.017-.22-.022-.23-.018-.462-.029-.696-.029-.233 0-.466.011-.696.029-.075.005-.148.015-.222.022-.157.016-.312.034-.467.058-.085.013-.17.028-.253.044-.142.026-.287.055-.429.089-.084.02-.168.04-.252.062-.142.038-.284.081-.426.126-.077.025-.154.048-.23.075-.165.058-.331.123-.49.19-.048.02-.098.036-.146.058-.207.091-.411.19-.612.298-.055.03-.108.064-.163.095-.116.065-.233.129-.346.2L4.32.946h9.467zM4.32 27.456v-5.607c.114.071.232.135.349.201.053.03.105.063.16.092.2.108.405.208.614.3.048.02.095.036.14.056.163.069.33.134.496.193.075.026.152.047.227.073.142.048.284.089.43.127.084.023.167.043.252.063.142.033.284.062.43.089l.251.044c.155.024.311.042.468.057.074.008.147.018.222.023.23.017.462.028.696.028.234 0 .467-.01.697-.028.074-.005.148-.015.222-.023.156-.015.313-.033.467-.057.085-.013.169-.029.253-.044.142-.027.284-.056.426-.09.084-.019.169-.04.252-.062.142-.038.285-.08.427-.126.076-.025.153-.047.23-.074.165-.059.33-.123.49-.19.048-.02.095-.037.142-.058.208-.091.412-.19.612-.298.056-.03.11-.064.165-.095.116-.065.232-.128.345-.199l.004 5.605H4.32zm12.67-11.913c-.334 1.997-1.413 3.793-3.02 5.025-1.404 1.095-3.136 1.687-4.917 1.68-.224 0-.448-.008-.67-.026-.277-.025-.554-.063-.827-.116C3.19 21.28.32 17.075 1.146 12.71c.365-1.937 1.43-3.672 2.99-4.876 3.518-2.716 8.572-2.066 11.288 1.451.808 1.046 1.345 2.274 1.566 3.577.148.888.148 1.794 0 2.681zm2.004-.395H18c.003-.027 0-.055.004-.08.027-.285.045-.573.045-.867 0-.294-.018-.583-.045-.866 0-.027 0-.055-.004-.08h.994v1.893z"/>
        <path d="M12.735 9.85l-3.074 3.073c-.384-.182-.83-.182-1.215 0L6.71 11.19c-.188-.182-.488-.177-.67.011-.176.184-.176.475 0 .658l1.735 1.734c-.331.711-.023 1.556.688 1.888.536.25 1.172.14 1.594-.274.428-.424.538-1.072.275-1.613l3.073-3.073c.181-.188.176-.488-.012-.67-.183-.177-.474-.177-.658 0zm-3.347 4.686c-.185.185-.485.185-.67 0-.184-.185-.184-.484 0-.67.186-.184.485-.184.67 0 .089.09.139.21.139.335 0 .126-.05.246-.139.335zM9.053 8.52c.262 0 .474-.211.474-.473v-.946c0-.262-.212-.474-.474-.474-.261 0-.473.212-.473.474v.946c0 .262.212.474.473.474zM9.053 19.882c-.261 0-.473.212-.473.473v.947c0 .261.212.473.473.473.262 0 .474-.212.474-.473v-.947c0-.261-.212-.473-.474-.473zM2.9 13.728h-.947c-.262 0-.474.212-.474.473 0 .262.212.474.474.474H2.9c.261 0 .473-.212.473-.474 0-.261-.212-.473-.473-.473zM16.154 13.728h-.947c-.261 0-.473.212-.473.473 0 .262.212.474.473.474h.947c.261 0 .473-.212.473-.474 0-.261-.211-.473-.473-.473z"/>
    </g>
</svg>
